<svg width="59" height="59" viewBox="0 0 59 59" fill="none" xmlns="http://www.w3.org/2000/svg">
<path d="M21.2341 51.4366C14.8764 51.4366 8.94997 49.5857 3.96173 46.392C8.19691 46.6663 15.671 46.0094 20.3199 41.5708C13.3265 41.2496 10.1725 35.8807 9.76117 33.5863C10.3554 33.8158 13.1893 34.0911 14.7892 33.4487C6.74437 31.4296 5.51023 24.3629 5.78449 22.2062C7.29288 23.2616 9.85258 23.6287 10.8582 23.5369C3.36191 18.1681 6.05874 10.0919 7.3843 8.34813C12.7639 15.8083 20.8262 19.9982 30.8004 20.2313C30.6124 19.4057 30.513 18.5461 30.513 17.6633C30.513 11.3276 35.6292 6.19141 41.9403 6.19141C45.2377 6.19141 48.209 7.59352 50.2947 9.83628C52.4982 9.31944 55.8144 8.10954 57.4356 7.06327C56.6184 10.0001 54.0744 12.45 52.5355 13.358C52.5483 13.3889 52.523 13.327 52.5355 13.358C53.8873 13.1533 57.5448 12.4497 58.9897 11.4685C58.2752 13.1184 55.578 15.8615 53.3645 17.3973C53.7763 35.5773 39.8802 51.4366 21.2341 51.4366Z" fill="white"/>
</svg>
